# xmcd CD database file
#
# Track frame offsets:
#	150
#	16097
#	30465
#	48382
#	65060
#	87122
#	106452
#	124075
#	141467
#	153505
#	156112
#	173362
#
# Disc length: 2525 seconds
#
# Revision: 0
# Processed by: cddbd v1.5.1PL0 Copyright (c) Steve Scherf et al.
# Submitted via: CDex 1.51
#
DISCID=9409db0c
DTITLE=StripClubJunkies - StripClubJunkies
DYEAR=2004
DGENRE=Country
TTITLE0=Find Me
TTITLE1=Stripclub Junkie
TTITLE2=Remorse
TTITLE3=Secondhand Girl
TTITLE4=Flying V
TTITLE5=Wild Horses
TTITLE6=Green Eyed Girl
TTITLE7=Baby (What You See is What You Get)
TTITLE8=Child of The Sun
TTITLE9=*
TTITLE10=T-shirt Man
TTITLE11=Running Back Home
EXTD=YEAR: 2004
EXTT0=
EXTT1=
EXTT2=
EXTT3=
EXTT4=
EXTT5=
EXTT6=
EXTT7=
EXTT8=
EXTT9=
EXTT10=
EXTT11=
PLAYORDER=
